<?xml version="1.0" standalone="no"?>
<!DOCTYPE svg PUBLIC "-//W3C//DTD SVG 20010904//EN"
 "http://www.w3.org/TR/2001/REC-SVG-20010904/DTD/svg10.dtd">
<svg version="1.0" xmlns="http://www.w3.org/2000/svg"
 width="475.000000pt" height="525.000000pt" viewBox="0 0 475.000000 525.000000"
 preserveAspectRatio="xMidYMid meet">

<g transform="translate(0.000000,525.000000) scale(0.100000,-0.100000)"
fill="#000000" stroke="none">
<path d="M2215 4663 c-94 -34 -200 -108 -258 -179 -47 -59 -117 -189 -117
-219 0 -9 -5 -26 -12 -38 -19 -36 -13 -183 10 -262 59 -196 234 -358 432 -400
123 -26 234 -15 343 33 l47 21 29 -57 c16 -31 41 -79 55 -106 14 -27 26 -55
26 -63 0 -7 -24 -25 -54 -40 l-54 -26 82 -43 c185 -96 206 -108 206 -113 0
-13 -69 -60 -75 -52 -3 6 -49 34 -103 63 -53 29 -119 65 -147 81 -27 15 -67
35 -87 44 -21 9 -38 22 -38 30 0 7 3 13 8 13 4 0 22 13 40 28 l33 28 -18 47
c-17 46 -19 47 -48 40 -16 -4 -76 -8 -131 -8 l-102 0 -28 -50 c-34 -62 -177
-205 -265 -266 -51 -36 -71 -58 -92 -100 -56 -116 -85 -188 -79 -195 4 -4 2
-4 -4 -1 -9 5 -53 -78 -201 -378 -118 -240 -316 -634 -329 -655 -8 -14 -22
-39 -29 -57 -8 -17 -19 -34 -24 -37 -5 -4 -41 16 -80 43 -107 73 -217 106
-351 105 -88 0 -117 -5 -180 -27 -41 -15 -82 -30 -92 -33 -19 -7 -25 8 -33 81
-3 28 -10 77 -15 110 -13 77 -13 273 0 350 5 33 12 78 15 100 9 61 72 296 94
353 44 111 134 283 202 387 134 205 249 331 439 481 100 79 264 185 285 184 6
-1 18 -23 29 -51 l19 -49 31 45 c17 25 63 92 102 148 39 56 70 105 68 109 -3
4 -30 10 -62 13 -31 4 -110 15 -174 25 -65 9 -118 14 -118 10 0 -3 14 -32 30
-62 l30 -56 -102 -63 c-57 -35 -107 -67 -113 -71 -21 -17 -122 -95 -155 -120
-64 -49 -193 -180 -275 -279 -86 -104 -183 -252 -256 -389 -94 -177 -171 -430
-209 -687 -22 -157 -10 -394 32 -571 l19 -84 -55 -59 c-132 -143 -196 -335
-168 -506 39 -233 227 -439 455 -500 96 -26 264 -23 352 7 75 25 178 87 235
141 113 108 190 273 190 407 0 47 4 55 58 118 160 191 281 273 522 356 109 38
157 53 355 113 47 15 83 30 80 35 -3 4 4 6 15 3 11 -3 40 4 65 16 25 11 49 21
53 21 15 0 83 36 77 41 -3 3 1 6 9 6 48 0 241 121 334 210 10 10 24 8 65 -9
166 -67 362 -43 516 61 60 41 150 135 175 181 7 14 17 34 23 45 42 79 56 139
56 249 0 144 -33 242 -121 356 -63 81 -122 128 -210 167 -111 49 -138 55 -240
50 -101 -4 -141 -12 -207 -42 -22 -11 -44 -19 -49 -19 -6 -1 -9 67 -8 167 2
132 -1 167 -10 161 -7 -4 -27 -18 -45 -30 -17 -13 -36 -24 -41 -24 -5 0 -18
24 -30 53 -11 28 -25 51 -32 49 -6 -1 -9 2 -6 7 3 5 -5 34 -19 66 l-25 57 48
61 c110 139 155 300 127 455 -8 46 -51 158 -77 201 -62 101 -220 223 -328 252
-25 7 -94 13 -155 15 -96 2 -119 -1 -180 -23z m254 -103 c64 -12 149 -53 200
-96 21 -18 42 -30 46 -26 5 4 5 2 2 -4 -4 -7 0 -18 9 -25 51 -42 111 -239 101
-329 -27 -225 -216 -399 -432 -400 -88 0 -162 20 -224 59 -260 167 -296 485
-80 698 108 107 239 149 378 123z m-29 -1422 c24 -51 90 -188 146 -304 56
-116 105 -230 109 -253 10 -63 38 -131 78 -193 l36 -57 -47 -39 c-117 -97
-279 -173 -497 -233 -22 -6 -56 -17 -76 -25 -20 -7 -39 -10 -43 -7 -3 4 -6 2
-6 -3 0 -5 -8 -10 -17 -11 -26 -2 -68 -12 -99 -23 -15 -6 -46 -15 -70 -20 -58
-13 -236 -99 -229 -111 3 -5 0 -6 -8 -3 -31 12 -326 -196 -344 -243 -9 -22
-31 -15 -54 18 l-22 31 69 70 c38 39 109 97 159 130 49 33 93 64 96 70 3 5 9
9 13 7 10 -3 128 53 145 69 7 7 20 11 27 8 8 -3 13 -1 11 5 -1 6 15 12 36 14
42 5 57 11 57 26 0 6 -3 8 -7 6 -5 -3 -9 5 -9 16 -1 12 -7 37 -15 55 -13 30
-11 36 24 108 21 41 34 81 31 87 -4 7 -3 9 1 4 5 -4 26 30 47 75 22 46 38 84
36 84 -2 1 4 10 13 20 9 11 20 30 24 44 4 14 11 30 15 35 13 15 185 366 292
593 11 23 23 42 27 42 4 0 27 -42 51 -92z m967 -22 c142 -55 233 -154 282
-305 44 -136 11 -302 -80 -405 -18 -21 -27 -40 -23 -47 4 -7 3 -9 -3 -6 -6 4
-30 -8 -54 -26 -135 -102 -300 -123 -444 -58 -124 56 -203 141 -251 267 -77
205 23 451 225 554 79 40 114 49 202 49 67 1 98 -4 146 -23z m-2552 -1638 l40
-83 93 -19 c50 -10 92 -24 92 -29 0 -6 -30 -39 -66 -75 -44 -43 -63 -69 -59
-80 10 -26 27 -164 21 -170 -3 -3 -43 14 -89 38 l-84 44 -77 -43 c-46 -25 -82
-39 -87 -34 -6 6 -5 29 0 59 22 116 21 117 -48 190 -34 36 -59 70 -54 75 4 4
46 16 93 26 l85 18 40 83 c22 45 44 82 50 82 6 0 28 -37 50 -82z m-378 -673
c0 -8 -4 -12 -9 -9 -5 3 -6 10 -3 15 9 13 12 11 12 -6z"/>
<path d="M2200 4302 c-59 -26 -90 -75 -90 -142 0 -88 62 -145 149 -138 25 3
54 8 64 12 15 7 17 1 17 -58 l0 -66 38 0 37 0 3 195 3 195 -40 0 c-21 0 -41
-5 -43 -11 -3 -8 -14 -7 -35 5 -33 16 -76 20 -103 8z m99 -67 c32 -16 41 -33
41 -76 0 -55 -74 -100 -116 -71 -40 26 -45 102 -9 137 28 29 45 31 84 10z"/>
<path d="M2520 4087 c-30 -23 -50 -62 -50 -95 0 -106 96 -157 166 -87 20 20
24 34 24 83 0 51 -4 63 -26 86 -29 29 -86 35 -114 13z m88 -60 c20 -41 8 -95
-25 -110 -22 -10 -28 -8 -45 13 -16 19 -19 35 -15 69 3 24 11 47 18 52 24 16
53 5 67 -24z"/>
<path d="M3185 2981 c-183 -48 -287 -256 -208 -417 14 -30 29 -54 33 -54 4 0
17 11 29 24 22 23 22 25 7 70 -23 66 -20 114 10 175 30 60 103 115 167 127
104 18 237 -82 237 -180 0 -28 -17 -33 -52 -15 -11 6 -21 9 -23 7 -4 -4 42
-228 48 -235 7 -6 177 135 177 147 0 4 -15 11 -32 16 -32 10 -33 11 -39 80
-11 145 -120 250 -268 260 -31 2 -69 0 -86 -5z"/>
<path d="M351 3407 c-38 -19 -63 -62 -69 -115 -8 -92 37 -163 113 -178 71 -13
145 66 145 156 0 53 -34 119 -70 137 -32 16 -88 16 -119 0z m98 -63 c26 -33
29 -113 5 -149 -21 -32 -67 -34 -88 -3 -24 34 -21 133 4 158 27 27 55 25 79
-6z"/>
<path d="M3875 1893 c-11 -2 -27 -7 -35 -10 -8 -3 -22 -7 -30 -9 -71 -13 -209
-94 -275 -160 -59 -60 -131 -176 -155 -251 -37 -113 -37 -317 -1 -378 3 -5 7
-18 8 -27 3 -22 48 -103 81 -148 191 -257 526 -334 796 -183 217 122 337 336
323 577 -3 50 -7 100 -10 111 -43 169 -155 318 -303 401 -63 35 -83 43 -182
70 -49 13 -171 17 -217 7z m174 -73 c103 -14 218 -70 296 -147 68 -65 101
-118 141 -219 38 -98 38 -236 1 -342 -54 -153 -148 -263 -280 -326 -103 -50
-152 -59 -271 -54 -96 4 -108 7 -190 47 -199 96 -320 284 -321 496 0 94 15
156 62 246 82 160 230 270 401 299 65 11 77 11 161 0z"/>
<path d="M3824 1730 c-133 -43 -242 -147 -295 -285 -41 -105 -44 -227 -9 -320
46 -121 144 -229 258 -283 149 -71 351 -44 484 65 94 77 145 164 172 294 47
230 -100 465 -333 533 -75 22 -200 20 -277 -4z m293 -72 c106 -39 195 -133
235 -246 31 -88 23 -215 -20 -304 -53 -110 -144 -190 -254 -222 -229 -66 -465
86 -510 330 -15 84 0 163 49 257 55 104 159 183 273 207 60 12 163 2 227 -22z"/>
<path d="M4023 1363 l-143 -147 -65 64 -65 64 -27 -20 c-15 -11 -28 -25 -30
-30 -2 -5 40 -52 92 -104 l96 -95 62 65 c107 112 262 282 270 297 6 10 2 21
-12 34 -11 10 -23 19 -27 19 -4 0 -72 -66 -151 -147z"/>
<path d="M4090 1140 l0 -110 25 0 c23 0 25 4 25 40 l0 40 55 0 c48 0 55 2 55
20 0 18 -7 20 -56 20 l-55 0 3 32 c3 31 4 31 58 32 44 1 55 5 58 19 3 15 -6
17 -82 17 l-86 0 0 -110z"/>
</g>
</svg>
